<svg width="963" height="650" viewBox="0 0 963 650" fill="none" xmlns="http://www.w3.org/2000/svg">
    <path d="M195.893 1040.6c-78.265 0-511.486-15.26-568.961-45.779-57.476-30.517-102.111-74.462-133.906-131.834-31.795-57.373-47.693-125.121-47.693-203.245V381.425c0-79.344 15.898-147.092 47.693-203.244 31.795-57.372 76.43-101.317 133.906-131.834C-315.593 15.829 117.628.57 195.893.57c78.265 0 527.371 15.258 584.846 45.776 57.476 30.517 102.111 74.462 133.906 131.834 31.795 56.152 47.693 123.289 47.693 201.413v280.148c0 78.124-15.898 145.872-47.693 203.245-31.795 57.372-76.43 101.317-133.906 131.834-57.475 30.519-506.581 45.779-584.846 45.779zm0-130.007c75.819 0 515.753-21.362 557.331-64.086 41.578-42.724 62.367-104.979 62.367-186.765V381.425c0-81.786-21.4-144.041-64.201-186.765-41.578-42.724-480.901-64.086-555.497-64.086-74.596 0-498.645 21.362-541.446 64.086-41.578 42.724-62.367 104.979-62.367 186.765v278.317c0 81.786 20.789 144.041 62.367 186.765 42.801 42.724 466.85 64.086 541.446 64.086z" fill="#00FE53"/>
    <path fill="#00FE53" d="M-53.236 244.532H62.322v564.952H-53.236zM165.032 244.532h64.199v564.952h-64.199zM550.227 244.532h64.199v564.952h-64.199zM331.959 244.532h115.558v564.952H331.959z"/>
</svg>
