<svg width="800" height="499" viewBox="0 0 800 499" fill="none" xmlns="http://www.w3.org/2000/svg">
    <rect x=".533" y=".886" width="798.996" height="498.041" rx="31.96" fill="#001C06"/>
    <rect x="112.393" y="187.318" width="495.377" height="203.744" rx="13.317" fill="#001C06" stroke="#00FE53" stroke-width="5.327" stroke-dasharray="10.65 10.65"/>
    <rect x="155.006" y="144.705" width="495.377" height="203.744" rx="13.317" fill="#001C06" stroke="#00FE53" stroke-width="5.327"/>
    <path d="M237.33 283.575c-4.525 0-8.44-.86-11.747-2.581-3.306-1.721-5.876-4.142-7.711-7.265-1.771-3.123-2.647-6.787-2.628-10.993l.13-30.015c.019-4.206.927-7.871 2.725-10.993 1.862-3.123 4.453-5.545 7.774-7.265 3.322-1.721 7.245-2.581 11.77-2.581 4.588 0 8.503.86 11.746 2.581 3.306 1.72 5.845 4.142 7.616 7.265 1.834 3.122 2.742 6.787 2.724 10.993l-.131 30.015c-.018 4.206-.958 7.87-2.82 10.993-1.798 3.123-4.358 5.544-7.679 7.265-3.321 1.721-7.244 2.581-11.769 2.581zm.045-10.324c3.314 0 5.963-.956 7.947-2.868 1.984-1.911 2.982-4.461 2.996-7.647l.131-30.015c.014-3.187-.963-5.736-2.93-7.648s-4.608-2.867-7.921-2.867c-3.314 0-5.963.955-7.947 2.867s-2.983 4.461-2.997 7.648l-.131 30.015c-.014 3.186.963 5.736 2.93 7.647 1.968 1.912 4.608 2.868 7.922 2.868zm.084-19.309c-1.848 0-3.375-.606-4.58-1.817-1.142-1.21-1.709-2.772-1.701-4.683.009-1.912.589-3.442 1.741-4.589 1.152-1.147 2.684-1.72 4.596-1.72s3.439.573 4.581 1.72c1.142 1.147 1.709 2.677 1.701 4.589-.009 1.911-.589 3.473-1.742 4.683-1.152 1.211-2.684 1.817-4.596 1.817zm65.796 28.677.061-13.861h-31.068l.076-17.302 27.029-38.618h13.383l-28.955 41.773-.016 3.632h19.596l.069-15.772h11.949l-.175 40.148h-11.949zm49.093.956c-4.461 0-8.377-.829-11.747-2.485-3.307-1.721-5.877-4.111-7.712-7.17-1.771-3.122-2.647-6.787-2.629-10.993l.133-30.398c.019-4.269.927-7.934 2.724-10.993 1.862-3.058 4.453-5.416 7.774-7.073 3.385-1.721 7.308-2.581 11.769-2.581 4.525 0 8.409.86 11.651 2.581 3.307 1.657 5.878 4.015 7.712 7.073 1.835 3.059 2.743 6.724 2.725 10.993h-12.045c.014-3.313-.867-5.831-2.644-7.551-1.713-1.721-4.194-2.581-7.445-2.581-3.25 0-5.771.86-7.563 2.581-1.791 1.72-2.694 4.206-2.709 7.456l-.133 30.493c-.014 3.25.868 5.768 2.644 7.552 1.777 1.721 4.29 2.581 7.541 2.581 3.25 0 5.739-.86 7.467-2.581 1.792-1.784 2.695-4.302 2.709-7.552h12.045c-.018 4.143-.958 7.775-2.82 10.898-1.861 3.122-4.453 5.544-7.774 7.265-3.258 1.656-7.149 2.485-11.673 2.485zm57.317 0c-4.46 0-8.376-.829-11.746-2.485-3.307-1.721-5.877-4.111-7.712-7.17-1.771-3.122-2.647-6.787-2.629-10.993l.133-30.398c.018-4.269.926-7.934 2.724-10.993 1.862-3.058 4.453-5.416 7.774-7.073 3.385-1.721 7.308-2.581 11.769-2.581 4.525 0 8.408.86 11.651 2.581 3.307 1.657 5.877 4.015 7.712 7.073 1.835 3.059 2.743 6.724 2.724 10.993h-12.044c.014-3.313-.867-5.831-2.644-7.551-1.713-1.721-4.195-2.581-7.445-2.581s-5.771.86-7.563 2.581c-1.792 1.72-2.695 4.206-2.709 7.456l-.133 30.493c-.014 3.25.867 5.768 2.644 7.552 1.777 1.721 4.29 2.581 7.54 2.581s5.74-.86 7.468-2.581c1.792-1.784 2.695-4.302 2.709-7.552h12.045c-.018 4.143-.958 7.775-2.82 10.898-1.862 3.122-4.453 5.544-7.775 7.265-3.257 1.656-7.148 2.485-11.673 2.485zm35.814-.956.051-11.567 21.89-21.89c3.072-3.122 5.347-5.926 6.824-8.412 1.476-2.549 2.221-5.162 2.232-7.838.015-3.25-.867-5.768-2.643-7.552-1.777-1.848-4.194-2.772-7.253-2.772-3.378 0-6.027.988-7.947 2.963-1.92 1.912-2.888 4.589-2.903 8.03h-11.949c.083-4.461 1.056-8.285 2.918-11.471 1.926-3.25 4.613-5.767 8.062-7.552 3.45-1.784 7.468-2.676 12.057-2.676 4.397 0 8.217.828 11.46 2.485 3.243 1.657 5.75 3.983 7.521 6.978 1.772 2.995 2.648 6.564 2.63 10.706-.018 4.27-1.152 8.444-3.4 12.523-2.184 4.015-5.708 8.348-10.572 13l-14.592 14.243h29.251l-.047 10.802h-43.59zm78.344.956c-6.437 0-11.592-1.593-15.465-4.78-3.873-3.25-5.989-7.647-6.347-13.191h11.949c.244 2.421 1.192 4.301 2.843 5.64 1.715 1.274 4.07 1.911 7.065 1.911 3.314 0 5.835-.86 7.563-2.58 1.729-1.785 2.6-4.238 2.613-7.361l.03-6.787c.014-3.186-.836-5.608-2.549-7.265-1.713-1.72-4.227-2.581-7.541-2.581-2.039 0-3.793.414-5.263 1.243-1.469.828-2.589 1.975-3.36 3.441h-11.663l.646-38.427h39.288l-.047 10.801h-28.008l-.28 20.266h2.772l-2.878 2.389c.013-2.931 1.17-5.225 3.471-6.882 2.366-1.721 5.524-2.581 9.475-2.581 5.672-.064 10.062 1.657 13.169 5.162 3.172 3.441 4.744 8.253 4.717 14.434l-.03 6.787c-.027 6.309-2.024 11.28-5.991 14.912-3.904 3.633-9.296 5.449-16.179 5.449zm37.152-.956.304-69.781h41.869l-.045 10.419h-30.112l-.079 18.162h26.766l-.045 10.324h-26.766l-.089 20.457h30.112l-.046 10.419h-41.869z" fill="#00FE53"/>
    <rect x="617.091" y="106.087" width="71.91" height="71.91" rx="35.955" fill="#00FE53"/>
    <path d="m649.908 149.566.942.941.942-.941 14.666-14.666.517.518-16.125 16.125-8.922-8.922.518-.518 7.462 7.463z" fill="#002508" stroke="#000" stroke-width="2.663"/>
</svg>
