<svg width="800" height="499" viewBox="0 0 800 499" fill="none" xmlns="http://www.w3.org/2000/svg">
    <g clip-path="url(#q7tg5qotva)">
        <rect x=".061" y=".459" width="798.996" height="498.041" rx="31.96" fill="#001C06"/>
        <path d="m206.926 178.122-54.437-54.874 217.37 21.886 13.729 37.306-176.662-4.318z" fill="#00FE53"/>
        <path d="m383.588 183.435-176.682-4.318a.94.94 0 0 1-.676-.278l-54.417-54.895a.995.995 0 0 1-.199-1.134.983.983 0 0 1 .409-.435.987.987 0 0 1 .585-.122l217.371 21.886a.973.973 0 0 1 .835.637l13.729 37.326a1.06 1.06 0 0 1-.119.915 1.044 1.044 0 0 1-.836.418zm-176.244-6.288 174.811 4.258-13.012-35.356-213.988-21.548 52.189 52.646z" fill="#263238"/>
        <path d="m379.808 143.86-172.882 34.262-2.726 268.624 174.354-4.556 1.254-298.33z" fill="#00FE53"/>
        <path d="M204.2 447.741a1.017 1.017 0 0 1-.696-.298.948.948 0 0 1-.298-.717l2.725-268.604a.997.997 0 0 1 .796-.974l172.882-34.262a.99.99 0 0 1 .835.218 1.03 1.03 0 0 1 .359.776l-1.254 298.31a.979.979 0 0 1-.597.919.981.981 0 0 1-.378.076l-174.354 4.556h-.02zm3.701-268.803-2.686 266.774 172.344-4.477 1.254-296.161-170.912 33.864z" fill="#263238"/>
        <path d="m580.067 183.017 71.091-53.94-222.982 19.26-44.588 34.103 196.479.577z" fill="#06DE4C"/>
        <path d="m580.067 184.012-196.479-.577a1.015 1.015 0 0 1-.955-.677 1.037 1.037 0 0 1 .338-1.114l44.648-34.103c.151-.112.33-.18.518-.199l222.961-19.259a.949.949 0 0 1 1.014.636c.08.201.092.422.034.63a.988.988 0 0 1-.352.524l-71.09 53.94a.94.94 0 0 1-.637.199zm-193.554-2.567 193.216.577 68.086-51.731-219.261 18.922-42.041 32.232z" fill="#263238"/>
        <path d="m379.808 143.86 200.259 39.157 2.387 263.491-203.9-4.318 1.254-298.33z" fill="#00FE53"/>
        <path d="m582.455 447.502-203.901-4.317a.993.993 0 0 1-.975-.995l1.254-298.329a.979.979 0 0 1 .358-.757.963.963 0 0 1 .816-.218l200.259 39.156a.997.997 0 0 1 .816.975l2.387 263.491a1.093 1.093 0 0 1-.298.716 1.034 1.034 0 0 1-.716.278zm-202.946-6.287 201.891 4.278-2.368-261.66-198.269-38.759-1.254 296.141z" fill="#263238"/>
        <g filter="url(#wrizaksu7b)">
            <path d="M382.261 144.34c-.886-.173-1.53.823-1.008 1.56l72 101.587c.158.222.399.37.669.411l191.388 28.586c.875.131 1.477-.855.96-1.573l-65.972-91.573a1.003 1.003 0 0 0-.619-.397L382.261 144.34z" fill="#06DE4C"/>
            <path d="m454.069 246.909-72-101.587 197.418 38.6 65.971 91.573-191.389-28.586z" stroke="#263238" stroke-width="2"/>
        </g>
        <g filter="url(#b5n5bdtwic)">
            <path d="M472.773 239.126c-1.332-.185-2.449-.598-3.353-1.239a5.6 5.6 0 0 1-1.974-2.454c-.394-.991-.502-2.106-.325-3.343l1.263-8.832c.177-1.237.594-2.279 1.25-3.125a5.67 5.67 0 0 1 2.586-1.822c1.048-.371 2.238-.464 3.57-.28 1.351.188 2.468.601 3.353 1.239.903.642 1.552 1.458 1.946 2.45.412.994.53 2.11.353 3.348l-1.263 8.831c-.177 1.237-.603 2.278-1.278 3.121-.657.846-1.51 1.455-2.558 1.826-1.048.371-2.238.464-3.57.28zm.435-3.038c.975.135 1.794-.038 2.456-.52.662-.482 1.06-1.192 1.194-2.129l1.263-8.832c.134-.937-.049-1.727-.55-2.371-.502-.643-1.24-1.032-2.216-1.167-.975-.135-1.794.038-2.456.52-.662.482-1.06 1.192-1.194 2.129l-1.263 8.832c-.134.937.049 1.728.55 2.371.502.643 1.24 1.032 2.216 1.167zm.812-5.681c-.544-.076-.969-.316-1.274-.722-.287-.403-.39-.886-.31-1.448.081-.563.314-.989.7-1.28.386-.291.86-.397 1.423-.319.563.078.989.309 1.279.693.289.385.394.858.313 1.421-.08.562-.315.998-.704 1.308-.388.309-.864.425-1.427.347zm18.201 11.127.583-4.079-9.146-1.267.728-5.091 9.533-10.267 3.94.546-10.229 11.117-.153 1.069 5.77.799.663-4.64 3.518.487-1.689 11.813-3.518-.487zm14.414 2.284c-1.313-.182-2.432-.586-3.357-1.211-.903-.642-1.562-1.45-1.978-2.426-.394-.991-.502-2.106-.325-3.343l1.279-8.944c.18-1.256.597-2.298 1.251-3.125a5.52 5.52 0 0 1 2.577-1.766c1.067-.368 2.257-.462 3.57-.28 1.332.185 2.44.597 3.325 1.235a5.467 5.467 0 0 1 1.982 2.398c.415.975.533 2.091.353 3.347l-3.546-.491c.14-.975-.017-1.752-.47-2.331-.434-.577-1.13-.931-2.087-1.064-.956-.132-1.734.018-2.331.451-.598.434-.965 1.129-1.102 2.085l-1.283 8.972c-.137.956.02 1.733.47 2.331.453.579 1.158.935 2.115 1.068.957.132 1.725-.019 2.304-.455.6-.453.969-1.157 1.105-2.113l3.546.491c-.174 1.219-.599 2.25-1.274 3.093a5.663 5.663 0 0 1-2.586 1.822c-1.026.355-2.206.44-3.538.256zm16.875 2.338c-1.313-.182-2.432-.586-3.357-1.211-.903-.642-1.562-1.45-1.978-2.425-.394-.992-.502-2.107-.325-3.344l1.279-8.944c.179-1.256.596-2.298 1.25-3.125.673-.825 1.532-1.413 2.578-1.766 1.066-.368 2.256-.461 3.57-.28 1.332.185 2.44.597 3.325 1.236.905.622 1.566 1.421 1.981 2.397.416.975.534 2.091.354 3.347l-3.546-.491c.139-.975-.017-1.752-.47-2.331-.434-.577-1.13-.931-2.087-1.064-.957-.132-1.734.018-2.332.452-.597.433-.965 1.128-1.101 2.084l-1.283 8.972c-.137.957.02 1.734.47 2.331.453.58 1.158.935 2.115 1.068.956.132 1.724-.019 2.303-.455.601-.453.969-1.157 1.106-2.113l3.546.491c-.174 1.219-.599 2.25-1.275 3.093a5.655 5.655 0 0 1-2.585 1.822c-1.026.355-2.206.44-3.538.256zm10.583 1.179.487-3.403 7.337-5.552c1.032-.794 1.816-1.526 2.352-2.198.539-.69.865-1.429.977-2.216.137-.957-.02-1.734-.47-2.332-.447-.616-1.121-.987-2.022-1.112-.994-.137-1.815.045-2.461.549-.643.484-1.037 1.233-1.182 2.245l-3.518-.487c.207-1.31.649-2.396 1.327-3.258a5.847 5.847 0 0 1 2.682-1.895c1.088-.384 2.308-.483 3.659-.296 1.294.18 2.385.579 3.272 1.199.887.62 1.531 1.408 1.93 2.362.399.954.512 2.04.337 3.259-.179 1.256-.683 2.439-1.511 3.548-.807 1.093-2.021 2.225-3.643 3.396l-4.877 3.598 8.612 1.193-.455 3.178-12.833-1.778zm23.026 3.478c-1.895-.263-3.348-.942-4.358-2.038-1.008-1.115-1.451-2.496-1.331-4.143l3.518.487c-.027.723.176 1.315.607 1.777.453.445 1.12.729 2.002.851.976.135 1.753-.015 2.332-.452.582-.454.938-1.141 1.07-2.06l.285-1.997c.134-.937-.017-1.685-.454-2.243-.434-.576-1.139-.932-2.115-1.067-.6-.083-1.133-.033-1.6.151a2.483 2.483 0 0 0-1.13.876l-3.433-.476 1.758-11.287 11.566 1.603-.454 3.178-8.246-1.142-.909 5.955.816.113-.945.586c.124-.863.558-1.491 1.303-1.885.767-.41 1.732-.534 2.895-.373 1.672.212 2.895.898 3.666 2.057.794 1.142 1.06 2.623.8 4.442l-.285 1.997c-.266 1.856-1.057 3.238-2.373 4.145-1.297.911-2.959 1.225-4.985.945zm10.977 1.234 2.936-20.532 12.326 1.708-.438 3.066-8.865-1.229-.764 5.344 7.88 1.092-.435 3.038-7.88-1.092-.86 6.019 8.865 1.228-.439 3.066-12.326-1.708z" fill="#001C06"/>
        </g>
        <path d="m206.926 178.122-57.939-86.41 164.664-46.718 66.157 98.867-172.882 34.261z" fill="#00FE53"/>
        <path d="M206.926 179.117a1 1 0 0 1-.835-.437l-57.919-86.411a1.03 1.03 0 0 1-.12-.896 1.018 1.018 0 0 1 .657-.617L313.373 44.04a1.014 1.014 0 0 1 1.114.398l66.137 98.886a.986.986 0 0 1 .101.923.974.974 0 0 1-.718.589l-172.902 34.262-.179.02zm-56.347-86.828 56.805 84.739 170.772-33.824-64.922-97.036-162.655 46.12zM204.2 446.746l206.05 5.094 169.419-7.063-201.115-2.587-174.354 4.556z" fill="#263238"/>
        <path d="m410.29 452.835-206.109-5.094a1.013 1.013 0 0 1-.975-.995.996.996 0 0 1 .975-.995l174.354-4.556 201.154 2.587a1.012 1.012 0 0 1 .975.994.994.994 0 0 1-.955.995l-169.419 7.064zm-166.893-6.129 166.873 4.139 132.869-5.531-164.604-2.129-135.138 3.521z" fill="#263238"/>
    </g>
    <defs>
        <filter id="wrizaksu7b" x="377.066" y="144.32" width="273.395" height="140.176" filterUnits="userSpaceOnUse" color-interpolation-filters="sRGB">
            <feFlood flood-opacity="0" result="BackgroundImageFix"/>
            <feColorMatrix in="SourceAlpha" values="0 0 0 0 0 0 0 0 0 0 0 0 0 0 0 0 0 0 127 0" result="hardAlpha"/>
            <feOffset dy="4"/>
            <feGaussianBlur stdDeviation="2"/>
            <feComposite in2="hardAlpha" operator="out"/>
            <feColorMatrix values="0 0 0 0 0 0 0 0 0 0 0 0 0 0 0 0 0 0 0.25 0"/>
            <feBlend in2="BackgroundImageFix" result="effect1_dropShadow_29_845"/>
            <feBlend in="SourceGraphic" in2="effect1_dropShadow_29_845" result="shape"/>
        </filter>
        <filter id="b5n5bdtwic" x="462.244" y="217.127" width="125.155" height="44.909" filterUnits="userSpaceOnUse" color-interpolation-filters="sRGB">
            <feFlood flood-opacity="0" result="BackgroundImageFix"/>
            <feColorMatrix in="SourceAlpha" values="0 0 0 0 0 0 0 0 0 0 0 0 0 0 0 0 0 0 127 0" result="hardAlpha"/>
            <feOffset dy="4"/>
            <feGaussianBlur stdDeviation="2"/>
            <feComposite in2="hardAlpha" operator="out"/>
            <feColorMatrix values="0 0 0 0 0 0 0 0 0 0 0 0 0 0 0 0 0 0 0.15 0"/>
            <feBlend in2="BackgroundImageFix" result="effect1_dropShadow_29_845"/>
            <feBlend in="SourceGraphic" in2="effect1_dropShadow_29_845" result="shape"/>
        </filter>
        <clipPath id="q7tg5qotva">
            <path fill="#fff" transform="translate(.061 .46)" d="M0 0h798.996v498.041H0z"/>
        </clipPath>
    </defs>
</svg>
