<svg width="800" height="499" viewBox="0 0 800 499" fill="none" xmlns="http://www.w3.org/2000/svg">
    <g clip-path="url(#6j1a9apd1a)">
        <rect x=".533" y=".032" width="798.996" height="498.041" rx="31.96" fill="#001C06"/>
        <path d="M178.647 194.423h450.329v553.103A17.475 17.475 0 0 1 611.502 765H196.121a17.475 17.475 0 0 1-17.474-17.474V194.423z" fill="#fff" stroke="#263238" stroke-width=".513" stroke-miterlimit="10"/>
        <path d="M616.05 194.505H191.594V739.23H616.05V194.505z" fill="#fff" stroke="#263238" stroke-width=".513" stroke-miterlimit="10"/>
        <path d="M285.601 439.079c29.484 0 53.385-23.901 53.385-53.385 0-29.483-23.901-53.384-53.385-53.384-29.483 0-53.384 23.901-53.384 53.384 0 29.484 23.901 53.385 53.384 53.385zM409.005 439.079c29.483 0 53.385-23.901 53.385-53.385 0-29.483-23.902-53.384-53.385-53.384-29.484 0-53.385 23.901-53.385 53.384 0 29.484 23.901 53.385 53.385 53.385zM532.408 439.079c29.484 0 53.385-23.901 53.385-53.385 0-29.483-23.901-53.384-53.385-53.384-29.483 0-53.385 23.901-53.385 53.384 0 29.484 23.902 53.385 53.385 53.385z" fill="#263238"/>
        <path d="M248.892 372.072s23.537-64.263 37.365-64.263c13.827 0 38.123 63.505 38.123 63.505l-4.097.368s-23.907-55.679-31.015-59.038c-7.108-3.36-20.178 16.818-36.238 59.407l-4.138.021z" fill="#fff" stroke="#263238" stroke-width=".513" stroke-linecap="round" stroke-linejoin="round"/>
        <path d="M252.149 368.343h68.974a8.854 8.854 0 0 1 8.85 8.85v36.423a7.09 7.09 0 0 1-7.088 7.088h-72.518a7.088 7.088 0 0 1-7.088-7.088v-36.423a8.847 8.847 0 0 1 8.87-8.85z" fill="#fff" stroke="#263238" stroke-width=".513" stroke-linecap="round" stroke-linejoin="round"/>
        <path d="M244.037 396.367h78.479" stroke="#263238" stroke-width=".513" stroke-linecap="round" stroke-linejoin="round"/>
        <path d="M325.876 370.207s-1.865 2.254-1.865 8.604c0 6.351-2.253 39.988-1.864 41.483.389 1.495 2.602.369 2.602.369" fill="#fff"/>
        <path d="M325.876 370.207s-1.865 2.254-1.865 8.604c0 6.351-2.253 39.988-1.864 41.483.389 1.495 2.602.369 2.602.369" stroke="#263238" stroke-width=".513" stroke-linecap="round" stroke-linejoin="round"/>
        <path d="M286.277 388.89h-5.982v13.459h5.982V388.89zM362.258 354.454s24.971-2.171 54.265-2.171 43.019 1.823 43.409 3.626c.389 1.802-3.974 25.32-3.974 27.491 0 2.171 0 32.551-.738 34.354-.737 1.803-3.974 3.257-5.408 3.626-1.434.368-77.414 1.085-79.585 1.085a4.341 4.341 0 0 1-3.975-4.342c0-2.172 1.086-26.037-.737-34.723s-3.257-28.946-3.257-28.946z" fill="#fff" stroke="#263238" stroke-width=".513" stroke-linecap="round" stroke-linejoin="round"/>
        <path d="M389.011 366.5s-.369-28.577 2.54-38.349a20.304 20.304 0 0 1 19.175-14.463 26.862 26.862 0 0 1 24.234 19.892c3.605 14.114.717 31.834.348 33.637-.369 1.802-4.343 6.883-5.06-2.889-.717-9.771.717-32.551-2.171-39.065a17.228 17.228 0 0 0-18.806-9.403c-7.6 1.803-11.574 5.06-13.029 14.463-1.454 9.402 1.455 31.117-.348 35.808-1.802 4.691-6.145 6.78-6.883.369z" fill="#fff" stroke="#263238" stroke-width=".513" stroke-linecap="round" stroke-linejoin="round"/>
        <path d="M369.14 354.823s-1.803 19.174-1.803 26.405c0 7.232-.368 11.943-.368 11.943" fill="#fff"/>
        <path d="M369.14 354.823s-1.803 19.174-1.803 26.405c0 7.232-.368 11.943-.368 11.943M453.786 355.192s.717 19.153.717 30.379" stroke="#263238" stroke-width=".513" stroke-linecap="round" stroke-linejoin="round"/>
        <path d="M547.035 351.525a1.91 1.91 0 0 1-1.783-1.598c-3.564-22.308-8.05-46.87-10.242-54.86-3.38 7.539-10.796 31.527-16.941 53.262a1.894 1.894 0 0 1-3.647-1.024c0-.143 3.954-14.033 8.194-27.922 8.932-28.925 10.591-29.498 11.943-29.97a2.054 2.054 0 0 1 2.049.287c.983.717 2.315 1.701 7.641 31.097a1720.857 1720.857 0 0 1 4.855 28.454 1.903 1.903 0 0 1-1.578 2.171l-.491.103z" fill="#fff" stroke="#263238" stroke-width=".513" stroke-linecap="round" stroke-linejoin="round"/>
        <path d="M487.095 345.318s36.771-2.274 49.452-1.762c12.68.512 35.193 1.905 35.132 3.298-.061 1.393-.533 47.956-1.864 57.359-1.332 9.403-7.887 20.854-13.623 22.964-5.736 2.11-24.971 1.332-34.825.942-9.853-.389-18.744-1.7-23.189-7.989-4.446-6.289-7.621-32.776-7.621-32.776l-3.462-42.036z" fill="#fff" stroke="#263238" stroke-width=".513" stroke-linecap="round" stroke-linejoin="round"/>
        <path d="M516.307 355.438a3.774 3.774 0 0 0-2.18-3.581 3.769 3.769 0 1 0-1.733 7.186 3.74 3.74 0 0 0 3.571-2.176c.207-.45.323-.935.342-1.429zM551.5 357.322a3.77 3.77 0 1 0-3.912 3.606 3.742 3.742 0 0 0 2.707-.989 3.759 3.759 0 0 0 1.205-2.617z" fill="#fff" stroke="#263238" stroke-width=".513" stroke-linecap="round" stroke-linejoin="round"/>
        <path d="M493.486 407.183s26.426-2.232 74.751.205l-74.751-.205z" fill="#fff"/>
        <path d="M493.486 407.183s26.426-2.232 74.751.205" stroke="#263238" stroke-width=".513" stroke-linecap="round" stroke-linejoin="round"/>
        <path d="M589.03 255.408H224.228v29.663H589.03v-29.663z" fill="#263238"/>
        <path d="M401.179 272.288h36.157M479.188 272.288h36.156" stroke="#fff" stroke-width="1.027" stroke-miterlimit="10"/>
        <path d="M577.619 263.11a.776.776 0 0 0-.614-.307h-19.83l-.758-2.294a.818.818 0 0 0-.737-.533h-5.019a.78.78 0 0 0-.779.779c0 .102.02.203.06.297a.772.772 0 0 0 .719.481h4.466l4.834 14.524a.804.804 0 0 0 .738.533h.389c-.279.418-.429.91-.43 1.413a2.665 2.665 0 0 0 .689 2.032 2.657 2.657 0 0 0 3.927 0 2.665 2.665 0 0 0 .689-2.032 2.556 2.556 0 0 0-.43-1.413h3.708c-.279.418-.429.91-.43 1.413a2.649 2.649 0 0 0 .689 2.032 2.654 2.654 0 0 0 1.964.865 2.657 2.657 0 0 0 1.963-.865 2.665 2.665 0 0 0 .689-2.032 2.556 2.556 0 0 0-.43-1.413h.594a.783.783 0 0 0 .72-.481.78.78 0 0 0-.72-1.076h-12.926l-.84-2.54h14.34a.76.76 0 0 0 .737-.554l2.192-8.194a.776.776 0 0 0-.164-.635zm-14.339 15.999c-.294 0-.575-.116-.782-.324a1.102 1.102 0 0 1 0-1.564 1.102 1.102 0 0 1 1.564 0 1.108 1.108 0 0 1-.782 1.888zm8.194 0a1.105 1.105 0 0 1-.188-2.192 1.108 1.108 0 0 1 1.315 1.086 1.12 1.12 0 0 1-.38.847 1.11 1.11 0 0 1-.891.259h.144zm2.048-8.194h-2.847v-6.617h2.704l.143 6.617zm-7.251-6.617h2.847v6.617h-2.847v-6.617zm-1.537 6.617h-2.847v-6.617h2.847v6.617zm-6.944-6.617h2.56v6.617h-.348l-2.212-6.617zm17.269 3.893v-3.893h1.044l-1.044 3.893zM371.374 279.13H237.851a8.886 8.886 0 0 1-8.233-5.484 8.912 8.912 0 0 1 8.233-12.318h133.523a8.893 8.893 0 0 1 8.89 8.911 8.89 8.89 0 0 1-8.89 8.891z" fill="#fff"/>
        <path d="M258.172 455.713h54.675M258.172 466.079h54.675M381.657 455.713h54.675M381.657 466.079h54.675M505.142 455.713h54.675M505.142 466.079h54.675" stroke="#263238" stroke-width="1.027" stroke-linecap="round" stroke-linejoin="round"/>
        <path d="M616.05 194.505H191.594v71.801H616.05v-71.801z" fill="#00FE53" stroke="#263238" stroke-width=".513" stroke-miterlimit="10"/>
        <path d="M178.647 245.104h1.578a27.327 27.327 0 0 0 25.75-18.253 27.303 27.303 0 0 0 30.372 17.886 27.304 27.304 0 0 0 22.705-26.961v-1.311h.267v1.311a27.328 27.328 0 1 0 54.654 0v-1.311h.246v1.311a27.327 27.327 0 1 0 54.634 0v-1.311h.246v1.311a27.327 27.327 0 1 0 54.635 0v-1.311h.901v1.311a27.324 27.324 0 0 0 16.687 25.923 27.316 27.316 0 0 0 21.26 0 27.324 27.324 0 0 0 16.687-25.923v-1.311h.246v1.311a27.328 27.328 0 1 0 54.655 0v-1.311h2.868v1.311a27.326 27.326 0 1 0 54.634 0v-1.311h.246v1.311a27.298 27.298 0 0 0 12.228 22.787 27.31 27.31 0 0 0 25.752 2.369v-48.509H178.647v50.681z" fill="#263238"/>
        <path d="M153 205.116v1.803a27.328 27.328 0 1 0 54.655 0v-1.803H153z" fill="#fff" stroke="#263238" stroke-width=".513" stroke-linecap="round" stroke-linejoin="round"/>
        <path d="M204.5 205.116c0 .595-.103 1.209-.103 1.803 0 7.248 2.88 14.199 8.004 19.324a27.33 27.33 0 0 0 46.651-19.324c0-.594 0-1.208-.102-1.803H204.5z" fill="#00FE53" stroke="#263238" stroke-width=".513" stroke-linecap="round" stroke-linejoin="round"/>
        <path d="M259.257 205.116v1.803a27.328 27.328 0 1 0 54.655 0v-1.803h-54.655z" fill="#fff" stroke="#263238" stroke-width=".513" stroke-linecap="round" stroke-linejoin="round"/>
        <path d="M314.014 205.116v1.803a27.322 27.322 0 0 0 7.731 19.805 27.32 27.32 0 0 0 39.172 0 27.318 27.318 0 0 0 7.731-19.805v-1.803h-54.634z" fill="#00FE53" stroke="#263238" stroke-width=".513" stroke-linecap="round" stroke-linejoin="round"/>
        <path d="M368.771 205.116v1.803a27.34 27.34 0 0 0 7.732 19.805 27.32 27.32 0 0 0 39.172 0 27.331 27.331 0 0 0 7.731-19.805v-1.803h-54.635z" fill="#fff" stroke="#263238" stroke-width=".513" stroke-linecap="round" stroke-linejoin="round"/>
        <path d="M424.185 205.116v1.803a27.321 27.321 0 0 0 16.686 25.923 27.32 27.32 0 0 0 30.217-6.118 27.331 27.331 0 0 0 7.731-19.805v-1.803h-54.634z" fill="#00FE53" stroke="#263238" stroke-width=".513" stroke-linecap="round" stroke-linejoin="round"/>
        <path d="M478.962 205.116c0 .595-.103 1.209-.103 1.803 0 7.248 2.88 14.199 8.004 19.324a27.332 27.332 0 0 0 46.651-19.324c0-.594 0-1.208-.102-1.803h-54.45z" fill="#fff" stroke="#263238" stroke-width=".513" stroke-linecap="round" stroke-linejoin="round"/>
        <path d="M536.321 205.116v1.803a27.321 27.321 0 0 0 16.687 25.923 27.316 27.316 0 0 0 21.26 0 27.318 27.318 0 0 0 16.687-25.923v-1.803h-54.634z" fill="#00FE53" stroke="#263238" stroke-width=".513" stroke-linecap="round" stroke-linejoin="round"/>
        <path d="M591.078 205.116v1.803a27.322 27.322 0 0 0 7.731 19.805 27.32 27.32 0 0 0 39.172 0 27.318 27.318 0 0 0 7.731-19.805v-1.803h-54.634z" fill="#fff" stroke="#263238" stroke-width=".513" stroke-linecap="round" stroke-linejoin="round"/>
        <path d="M201.489 120 153 205.608h493.327L600.153 120H201.489z" fill="#fff" stroke="#263238" stroke-width=".513" stroke-linecap="round" stroke-linejoin="round"/>
        <path d="M201.489 120 153 205.608h437.689L555.188 120H201.489z" fill="#00FE53" stroke="#263238" stroke-width=".513" stroke-linecap="round" stroke-linejoin="round"/>
        <path d="M201.489 120 153 205.608h381.6L509.874 120H201.489z" fill="#fff" stroke="#263238" stroke-width=".513" stroke-linecap="round" stroke-linejoin="round"/>
        <path d="M201.489 120 153 205.608h326.802L465.585 120H201.489z" fill="#00FE53" stroke="#263238" stroke-width=".513" stroke-linecap="round" stroke-linejoin="round"/>
        <path d="M201.489 120 153 205.608h270.467l-3.4-85.608H201.489z" fill="#fff" stroke="#263238" stroke-width=".513" stroke-linecap="round" stroke-linejoin="round"/>
        <path d="M201.489 120 153 205.608h215.075L375.306 120H201.489z" fill="#00FE53" stroke="#263238" stroke-width=".513" stroke-linecap="round" stroke-linejoin="round"/>
        <path d="M201.489 120 153 205.608h161.035L331.632 120H201.489z" fill="#fff" stroke="#263238" stroke-width=".513" stroke-linecap="round" stroke-linejoin="round"/>
        <path d="M201.489 120 153 205.608h106.524L287.568 120h-86.079z" fill="#00FE53" stroke="#263238" stroke-width=".513" stroke-linecap="round" stroke-linejoin="round"/>
        <path d="M201.489 120 153 205.608h52.299L243.75 120h-42.261z" fill="#fff" stroke="#263238" stroke-width=".513" stroke-linecap="round" stroke-linejoin="round"/>
        <path d="M270.805 93.473a18.436 18.436 0 0 1-10.509-2.52 12.416 12.416 0 0 1-4.958-7.026 37.067 37.067 0 0 1-1.331-10.57h12.025a32.928 32.928 0 0 0 .45 5.981 6.717 6.717 0 0 0 1.619 3.626 4.418 4.418 0 0 0 3.503 1.127 3.813 3.813 0 0 0 3.4-1.782 10.94 10.94 0 0 0 1.291-4.835c.164-2.103.245-4.582.245-7.436a41.836 41.836 0 0 0-.409-6.145 9.162 9.162 0 0 0-1.578-4.2 4.239 4.239 0 0 0-3.585-1.536 4.687 4.687 0 0 0-3.605 1.536 9.419 9.419 0 0 0-2.048 4.363h-10.673l.881-37.14h30.051v10.735h-19.788l-.717 14.462a7.413 7.413 0 0 1 3.257-2.048 16.388 16.388 0 0 1 4.978-1.045c2.97-.396 5.982.334 8.44 2.049a14.05 14.05 0 0 1 4.957 7.15 35.495 35.495 0 0 1 1.619 11.491c.02 3.207-.193 6.411-.636 9.587a21.045 21.045 0 0 1-2.499 7.58 12.824 12.824 0 0 1-5.346 4.978 19.792 19.792 0 0 1-9.034 1.618zM312.964 93.473a18.09 18.09 0 0 1-9.772-2.438 15.082 15.082 0 0 1-5.818-6.657 23.443 23.443 0 0 1-1.946-9.813V45.251a25.045 25.045 0 0 1 1.864-10.058 14.347 14.347 0 0 1 5.736-6.74 18.439 18.439 0 0 1 9.936-2.438 18.088 18.088 0 0 1 9.812 2.438 14.483 14.483 0 0 1 5.695 6.74 25.405 25.405 0 0 1 1.864 10.058v29.314a23.443 23.443 0 0 1-1.946 9.813 15.076 15.076 0 0 1-5.818 6.657 17.739 17.739 0 0 1-9.607 2.438zm0-11a3.583 3.583 0 0 0 3.154-1.373 8.19 8.19 0 0 0 1.291-3.257c.219-1.183.343-2.382.369-3.585v-28.68a26.6 26.6 0 0 0-.287-3.707 8.358 8.358 0 0 0-1.25-3.36 3.721 3.721 0 0 0-3.236-1.413 3.789 3.789 0 0 0-3.278 1.413 7.6 7.6 0 0 0-1.291 3.36 26.447 26.447 0 0 0-.286 3.708v28.679c.015 1.181.125 2.36.327 3.523a7.428 7.428 0 0 0 1.373 3.258 3.687 3.687 0 0 0 3.114 1.413v.02zM353.033 63.585c-5.285 0-9.054-1.427-11.308-4.281-2.253-2.855-3.407-7.081-3.462-12.68v-3.32c0-5.708 1.106-9.894 3.319-12.557 2.192-2.663 6.002-3.994 11.39-3.994 5.387 0 9.259 1.29 11.471 3.912 2.213 2.622 3.299 6.74 3.299 12.291v3.79c0 5.51-1.107 9.67-3.36 12.496-2.253 2.827-5.982 4.343-11.349 4.343zm0-8.01a3.768 3.768 0 0 0 3.052-1.126 5.69 5.69 0 0 0 1.209-3.237c.176-1.633.258-3.274.246-4.916V43.53a25.792 25.792 0 0 0-.594-6.473c-.41-1.455-1.721-2.172-3.913-2.172-2.192 0-3.462.717-3.892 2.049a24.437 24.437 0 0 0-.635 6.596v2.909c-.022 1.63.073 3.26.287 4.875a6 6 0 0 0 1.249 3.196 3.694 3.694 0 0 0 2.991 1.065zm7.907 36.751 19.625-65.41h7.355l-19.625 65.41h-7.355zm34.825.164c-5.326 0-9.116-1.414-11.348-4.281-2.233-2.868-3.34-7.047-3.34-12.599v-3.4c0-5.654 1.086-9.833 3.258-12.537 2.171-2.705 5.981-4.07 11.43-4.098 5.45 0 9.26 1.311 11.472 3.913 2.213 2.602 3.319 6.76 3.319 12.414v3.708c0 5.593-1.127 9.813-3.401 12.599-2.274 2.785-6.002 4.28-11.328 4.28h-.062zm0-7.99a3.731 3.731 0 0 0 3.032-1.126 6.35 6.35 0 0 0 1.209-3.196c.212-1.595.308-3.204.287-4.814v-2.99a24.294 24.294 0 0 0-.635-6.495c-.451-1.434-1.742-2.048-3.893-2.048s-3.441.717-3.871 2.171a24.322 24.322 0 0 0-.635 6.453v2.991a41.392 41.392 0 0 0 .225 4.814 5.833 5.833 0 0 0 1.25 3.196 3.926 3.926 0 0 0 3.093 1.045h-.062zM455.351 95.254a21.346 21.346 0 0 1-11.422-2.668 14.735 14.735 0 0 1-6.085-7.67 34.254 34.254 0 0 1-1.833-11.847v-25.28a33.056 33.056 0 0 1 1.833-11.73 14.408 14.408 0 0 1 6.085-7.478 26.859 26.859 0 0 1 22.977 0 14.661 14.661 0 0 1 6.1 7.478 32.711 32.711 0 0 1 1.877 11.73v25.383a33.26 33.26 0 0 1-1.877 11.73 15.306 15.306 0 0 1-6.1 7.67 21.217 21.217 0 0 1-11.555 2.682zm0-9.09a6.525 6.525 0 0 0 4.546-1.335 6.705 6.705 0 0 0 1.965-3.666c.346-1.673.514-3.38.499-5.088v-31.13a23.505 23.505 0 0 0-.499-5.088 6.36 6.36 0 0 0-1.965-3.534 6.672 6.672 0 0 0-4.546-1.305 6.58 6.58 0 0 0-4.398 1.305 6.331 6.331 0 0 0-2.009 3.534 24.425 24.425 0 0 0-.499 5.088v31.16c-.01 1.707.148 3.41.469 5.087a6.334 6.334 0 0 0 1.951 3.666 6.582 6.582 0 0 0 4.486 1.305zM483.975 94.345V26.763h27.772v8.504h-15.426V54.96h12.596v8.593h-12.596v30.792h-12.346zM518.213 94.345V26.763H546v8.504h-15.47V54.96h12.61v8.593h-12.61v30.792h-12.317z" fill="#00FE53"/>
    </g>
    <defs>
        <clipPath id="6j1a9apd1a">
            <path fill="#fff" transform="translate(.533 .032)" d="M0 0h798.996v498.041H0z"/>
        </clipPath>
    </defs>
</svg>
