<svg width="101" height="100" viewBox="0 0 101 100" fill="none" xmlns="http://www.w3.org/2000/svg">
    <rect x=".863" y="-.002" width="99.5" height="99.5" rx="49.75" fill="#00FE53"/>
    <path d="m50.613 67.854 10.07-10.07c5.562-5.562 5.562-14.579 0-20.14-5.562-5.562-14.579-5.562-20.14 0-5.562 5.561-5.562 14.578 0 20.14l10.07 10.07zm0 5.755L37.665 60.66c-7.15-7.15-7.15-18.744 0-25.895 7.151-7.15 18.745-7.15 25.895 0 7.151 7.15 7.151 18.744 0 25.895L50.613 73.61zm0-21.826a4.069 4.069 0 1 0 0-8.138 4.069 4.069 0 0 0 0 8.138zm0 4.069a8.138 8.138 0 1 1 0-16.276 8.138 8.138 0 0 1 0 16.276z" fill="#001C06"/>
</svg>
