<svg width="100" height="100" viewBox="0 0 100 100" fill="none" xmlns="http://www.w3.org/2000/svg">
    <rect x=".25" y="-.002" width="99.5" height="99.5" rx="49.75" fill="#00FE53"/>
    <path d="M68.31 41.61a4.069 4.069 0 0 1 4.07 4.07v8.137a4.069 4.069 0 0 1-4.07 4.07h-2.16c-1.001 8.028-7.85 14.24-16.15 14.24V68.06c6.741 0 12.207-5.466 12.207-12.207V43.645c0-6.742-5.466-12.207-12.207-12.207-6.742 0-12.207 5.465-12.207 12.207v14.241h-6.104a4.069 4.069 0 0 1-4.069-4.069V45.68a4.069 4.069 0 0 1 4.07-4.069h2.16c1-8.029 7.85-14.241 16.15-14.241 8.3 0 15.149 6.212 16.15 14.241h2.16zM41.372 57.45l2.157-3.451A12.15 12.15 0 0 0 50 55.852c2.377 0 4.595-.68 6.471-1.854l2.157 3.45A16.2 16.2 0 0 1 50 59.922a16.2 16.2 0 0 1-8.628-2.472z" fill="#001C06"/>
</svg>
