<svg width="101" height="100" viewBox="0 0 101 100" fill="none" xmlns="http://www.w3.org/2000/svg">
    <rect x=".637" y="-.002" width="99.5" height="99.5" rx="49.75" fill="#00FE53"/>
    <path d="M25.784 62.834a2.073 2.073 0 0 1-1.893-1.226 29.021 29.021 0 0 1 26.496-40.88A2.073 2.073 0 0 1 52.46 22.8v26.948a2.074 2.074 0 0 1-1.227 1.893L26.63 62.647a2.062 2.062 0 0 1-.846.187z" fill="#00FE53"/>
    <path d="M57.848 25.415a1.037 1.037 0 0 0-1.242 1.013v23.32a6.227 6.227 0 0 1-3.68 5.677l-22.345 10a1.036 1.036 0 0 0-.433 1.53 27.001 27.001 0 0 0 6.278 6.53A26.73 26.73 0 0 0 52.46 78.77c14.859 0 26.948-12.089 26.948-26.948 0-13.014-9.274-23.903-21.56-26.406z" fill="#00FE53"/>
    <path d="M48.551 37.178A13.246 13.246 0 0 0 37.339 48.39h3.648v3.783h-3.648A13.246 13.246 0 0 0 48.55 63.385v-3.648h3.782v3.648a13.246 13.246 0 0 0 11.213-11.212h-3.648V48.39h3.648a13.246 13.246 0 0 0-11.213-11.212v3.648h-3.782v-3.648zM33.526 48.39c.872-7.889 7.136-14.152 15.025-15.025V29.48h3.782v3.886c7.89.873 14.153 7.136 15.025 15.025h3.886v3.783h-3.886c-.872 7.888-7.136 14.152-15.025 15.025v3.886h-3.782v-3.886c-7.889-.873-14.153-7.137-15.025-15.025H29.64V48.39h3.886zm20.698 1.892a3.782 3.782 0 1 1-7.564 0 3.782 3.782 0 0 1 7.564 0z" fill="#001C06"/>
</svg>
