<svg width="217" height="108" viewBox="0 0 217 108" fill="none" xmlns="http://www.w3.org/2000/svg">
    <path d="M18.206 44.954c-2.802 0-5.263-.52-7.384-1.561-2.082-1.08-3.702-2.581-4.863-4.502-1.16-1.962-1.741-4.263-1.741-6.904v-8.285c0-2.682.58-4.983 1.74-6.904 1.162-1.92 2.782-3.402 4.864-4.442 2.12-1.08 4.582-1.621 7.384-1.621 4.162 0 7.484 1.08 9.965 3.242 2.482 2.12 3.782 5.022 3.903 8.704h-7.505c-.12-1.72-.74-3.041-1.86-3.962-1.081-.96-2.582-1.44-4.503-1.44-2.001 0-3.582.56-4.743 1.68-1.16 1.081-1.74 2.642-1.74 4.683v8.345c0 2.04.58 3.622 1.74 4.742 1.16 1.12 2.742 1.681 4.743 1.681 1.92 0 3.422-.46 4.502-1.38 1.12-.961 1.741-2.302 1.861-4.023h7.505c-.12 3.682-1.421 6.604-3.903 8.765-2.481 2.121-5.803 3.182-9.965 3.182zm35.816-.06c-2.801 0-5.243-.52-7.324-1.561-2.041-1.08-3.642-2.581-4.803-4.503-1.12-1.96-1.68-4.262-1.68-6.903v-8.165c0-2.641.56-4.923 1.68-6.844a11.58 11.58 0 0 1 4.803-4.502c2.081-1.08 4.523-1.621 7.324-1.621 2.842 0 5.283.54 7.324 1.62 2.042 1.041 3.622 2.542 4.743 4.503 1.16 1.921 1.741 4.183 1.741 6.784v8.225c0 2.641-.58 4.942-1.741 6.903-1.12 1.922-2.701 3.422-4.743 4.503-2.04 1.04-4.482 1.56-7.324 1.56zm0-6.544c2.001 0 3.542-.54 4.623-1.62 1.12-1.121 1.68-2.722 1.68-4.803v-8.165c0-2.121-.56-3.722-1.68-4.803-1.08-1.08-2.622-1.62-4.623-1.62-1.96 0-3.502.54-4.622 1.62-1.12 1.081-1.681 2.682-1.681 4.803v8.165c0 2.08.56 3.682 1.68 4.802 1.121 1.08 2.662 1.621 4.623 1.621zm33.175 6.604c-3.282 0-5.943-1.14-7.984-3.422-2.001-2.281-3.002-5.343-3.002-9.185v-8.945c0-3.882 1-6.964 3.002-9.245 2.001-2.282 4.663-3.422 7.984-3.422 2.722 0 4.883.78 6.484 2.341 1.6 1.52 2.401 3.622 2.401 6.304l-1.68-1.741h1.74l-.24-7.865V.53h7.504v43.825h-7.324V38.05h-1.68l1.68-1.741c0 2.681-.8 4.803-2.401 6.364-1.601 1.52-3.762 2.28-6.484 2.28zm2.642-6.484c1.92 0 3.402-.56 4.442-1.68 1.08-1.161 1.621-2.762 1.621-4.803v-8.285c0-2.041-.54-3.622-1.62-4.743-1.041-1.16-2.522-1.74-4.443-1.74-1.921 0-3.422.56-4.503 1.68-1.08 1.121-1.62 2.722-1.62 4.803v8.285c0 2.08.54 3.682 1.62 4.802 1.08 1.12 2.582 1.681 4.503 1.681zm36.237 6.484c-2.802 0-5.243-.54-7.325-1.621-2.081-1.08-3.702-2.581-4.862-4.503-1.121-1.96-1.681-4.242-1.681-6.843v-8.285c0-2.601.56-4.863 1.681-6.784 1.16-1.96 2.781-3.482 4.862-4.562 2.082-1.08 4.523-1.621 7.325-1.621 2.761 0 5.162.54 7.204 1.62 2.081 1.081 3.682 2.602 4.802 4.563 1.161 1.921 1.741 4.183 1.741 6.784v5.943h-20.351v2.342c0 2.32.56 4.082 1.681 5.283 1.12 1.16 2.781 1.74 4.983 1.74 1.68 0 3.041-.28 4.082-.84 1.04-.6 1.701-1.46 1.981-2.581h7.384c-.56 2.841-2.081 5.123-4.563 6.843-2.441 1.681-5.423 2.522-8.944 2.522zm6.483-19.511v-1.801c0-2.281-.54-4.022-1.621-5.223-1.08-1.24-2.701-1.861-4.862-1.861-2.162 0-3.803.62-4.923 1.861-1.121 1.24-1.681 3.002-1.681 5.283v1.26l13.627-.12-.54.601zm29.453 19.45c-2.561 0-4.783-.5-6.664-1.5-1.881-1-3.341-2.441-4.382-4.322-1.041-1.881-1.561-4.103-1.561-6.664v-9.125c0-2.602.52-4.823 1.561-6.664 1.041-1.881 2.501-3.322 4.382-4.322 1.881-1 4.103-1.501 6.664-1.501 2.562 0 4.783.5 6.664 1.5 1.881 1.001 3.342 2.442 4.382 4.323 1.041 1.841 1.561 4.042 1.561 6.604v9.185c0 2.561-.52 4.783-1.561 6.664-1.04 1.88-2.501 3.321-4.382 4.322-1.881 1-4.102 1.5-6.664 1.5zm0-4.262c2.481 0 4.403-.7 5.763-2.1 1.361-1.401 2.041-3.443 2.041-6.124v-9.125c0-2.682-.7-4.723-2.101-6.124-1.36-1.4-3.262-2.1-5.703-2.1-2.441 0-4.362.7-5.763 2.1-1.361 1.401-2.041 3.442-2.041 6.124v9.125c0 2.681.68 4.723 2.041 6.123 1.401 1.401 3.322 2.101 5.763 2.101zm23.81 3.722V11.335h4.743v6.123h1.2l-1.321 1.742c0-2.642.801-4.703 2.402-6.184 1.641-1.52 3.862-2.281 6.664-2.281 3.281 0 5.903 1.04 7.864 3.122 1.961 2.04 2.942 4.822 2.942 8.344v22.152h-4.743V22.741c0-2.52-.66-4.462-1.981-5.823-1.321-1.36-3.122-2.04-5.403-2.04-2.362 0-4.223.72-5.583 2.16-1.361 1.441-2.041 3.482-2.041 6.124v21.191h-4.743zM4.638 107.16V63.335h7.324v6.304h1.681l-1.68 1.74c0-2.68.8-4.782 2.4-6.303 1.601-1.56 3.763-2.341 6.484-2.341 3.322 0 5.984 1.14 7.985 3.422 2 2.281 3.001 5.343 3.001 9.185v8.945c0 2.561-.46 4.802-1.38 6.723-.88 1.882-2.142 3.342-3.782 4.383-1.641 1.04-3.582 1.56-5.824 1.56-2.721 0-4.883-.76-6.483-2.28-1.601-1.561-2.402-3.683-2.402-6.364l1.681 1.741h-1.74l.24 7.864v9.246H4.637zm13.568-16.69c1.92 0 3.422-.56 4.502-1.68 1.08-1.121 1.621-2.722 1.621-4.803v-8.285c0-2.081-.54-3.682-1.62-4.803-1.081-1.12-2.582-1.68-4.503-1.68-1.881 0-3.362.58-4.443 1.74-1.08 1.121-1.62 2.702-1.62 4.743v8.285c0 2.04.54 3.642 1.62 4.802 1.08 1.12 2.562 1.681 4.443 1.681zm32.154 6.484c-3.402 0-6.083-.9-8.044-2.702-1.961-1.8-2.942-4.222-2.942-7.264 0-3.242 1.08-5.743 3.242-7.504 2.161-1.76 5.223-2.641 9.185-2.641h8.225V74.02c0-1.6-.52-2.841-1.561-3.722-1.04-.92-2.462-1.38-4.263-1.38-1.64 0-3.001.36-4.082 1.08-1.08.72-1.72 1.7-1.921 2.942h-7.324c.36-3.122 1.76-5.604 4.202-7.445 2.442-1.84 5.563-2.761 9.366-2.761 4.042 0 7.224 1.02 9.545 3.061 2.361 2.002 3.542 4.723 3.542 8.165v22.392h-7.264V90.59h-1.2l1.2-1.62c0 2.44-.9 4.382-2.702 5.823-1.8 1.44-4.202 2.16-7.204 2.16zm2.462-5.643c2.12 0 3.842-.54 5.162-1.621 1.361-1.08 2.042-2.482 2.042-4.203v-4.022H51.92c-1.52 0-2.741.44-3.662 1.321-.92.88-1.38 2.041-1.38 3.482 0 1.56.52 2.802 1.56 3.722 1.08.88 2.542 1.32 4.383 1.32zm37.377 5.643c-2.802 0-5.263-.52-7.384-1.561-2.081-1.08-3.702-2.582-4.863-4.502-1.16-1.962-1.74-4.263-1.74-6.904v-8.285c0-2.681.58-4.983 1.74-6.904 1.16-1.92 2.782-3.402 4.863-4.442 2.121-1.08 4.582-1.621 7.384-1.621 4.162 0 7.484 1.08 9.966 3.242 2.481 2.12 3.782 5.022 3.902 8.704h-7.504c-.12-1.72-.74-3.041-1.862-3.962-1.08-.96-2.581-1.44-4.502-1.44-2.001 0-3.582.56-4.743 1.68-1.16 1.081-1.74 2.642-1.74 4.683v8.345c0 2.04.58 3.622 1.74 4.742 1.161 1.12 2.742 1.681 4.743 1.681 1.921 0 3.422-.46 4.502-1.38 1.121-.961 1.742-2.302 1.862-4.023h7.504c-.12 3.682-1.421 6.604-3.902 8.765-2.482 2.121-5.804 3.182-9.966 3.182zm22.609-.6V52.528h7.504v23.773h5.223l8.045-12.967h8.404l-9.965 15.969 10.145 17.05h-8.584l-8.045-13.688h-5.223v13.688h-7.504z" fill="#fff"/>
    <path d="M180.092 99.13c-3.165 0-20.684-.618-23.008-1.854-2.324-1.236-4.129-3.015-5.415-5.338-1.285-2.323-1.928-5.066-1.928-8.23V72.44c0-3.213.643-5.956 1.928-8.23 1.286-2.322 3.091-4.101 5.415-5.337 2.324-1.236 19.843-1.853 23.008-1.853 3.165 0 21.326.617 23.65 1.853 2.325 1.236 4.13 3.015 5.415 5.338 1.286 2.273 1.929 4.992 1.929 8.155v11.343c0 3.163-.643 5.906-1.929 8.23-1.285 2.322-3.09 4.101-5.415 5.337-2.324 1.236-20.485 1.853-23.65 1.853zm0-5.264c3.066 0 20.856-.865 22.538-2.595 1.681-1.73 2.522-4.25 2.522-7.562V72.44c0-3.311-.866-5.832-2.596-7.562-1.682-1.73-19.447-2.595-22.464-2.595-3.016 0-20.164.865-21.895 2.595-1.681 1.73-2.522 4.25-2.522 7.562V83.71c0 3.311.841 5.832 2.522 7.562 1.731 1.73 18.879 2.595 21.895 2.595z" fill="#00FE53"/>
    <path fill="#00FE53" d="M163.257 66.897h2.599v22.875h-2.599zM170.016 66.897h4.679v22.875h-4.679zM178.853 66.897h2.599v22.875h-2.599zM194.449 66.897h2.599v22.875h-2.599zM185.611 66.897h4.679v22.875h-4.679z"/>
</svg>
