<svg width="237" height="280" viewBox="0 0 237 280" fill="none" xmlns="http://www.w3.org/2000/svg">
    <g clip-path="url(#gbz6s5e5xa)">
        <path fill="#00FE53" d="M.638.172h235.704V279.82H.638z"/>
        <path d="M30.121 169.547c-2.386.302-4.508.109-6.367-.578-1.858-.687-3.375-1.792-4.55-3.317-1.143-1.529-1.849-3.403-2.12-5.622l-1.932-15.837c-.27-2.22-.036-4.213.704-5.979.774-1.771 1.98-3.221 3.616-4.35 1.637-1.128 3.648-1.844 6.034-2.145 2.42-.306 4.542-.114 6.367.578 1.858.687 3.358 1.794 4.5 3.323 1.176 1.525 1.9 3.396 2.17 5.616l1.932 15.837c.27 2.219.02 4.215-.754 5.985-.74 1.767-1.929 3.215-3.566 4.344-1.636 1.128-3.648 1.844-6.034 2.145zm-.665-5.447c1.748-.221 3.081-.902 4-2.042.919-1.141 1.276-2.552 1.07-4.233l-1.932-15.837c-.205-1.682-.89-2.961-2.055-3.838-1.164-.877-2.62-1.205-4.368-.984-1.748.221-3.08.902-4 2.042-.918 1.141-1.275 2.551-1.07 4.233l1.932 15.837c.205 1.681.89 2.961 2.055 3.838 1.165.877 2.621 1.205 4.368.984zm-1.242-10.189c-.975.124-1.82-.094-2.537-.652-.683-.562-1.086-1.348-1.209-2.357-.123-1.009.081-1.854.612-2.535.531-.682 1.3-1.087 2.31-1.214 1.007-.128 1.85.073 2.53.602.678.528 1.08 1.297 1.202 2.306.123 1.009-.079 1.871-.606 2.586-.527.716-1.294 1.137-2.302 1.264zm36.61 10.737-.893-7.313-16.383 2.071-1.114-9.13 11.68-22.167 7.057-.892-12.485 23.959.234 1.917 10.334-1.307-1.015-8.322 6.301-.797 2.585 21.184-6.302.797zm25.952-2.769c-2.352.298-4.472.122-6.36-.527-1.859-.687-3.374-1.776-4.545-3.267-1.142-1.529-1.848-3.403-2.12-5.622l-1.956-16.039c-.275-2.253-.04-4.246.704-5.979.778-1.737 1.987-3.153 3.628-4.249 1.67-1.133 3.682-1.848 6.034-2.145 2.386-.302 4.492-.107 6.317.584 1.854.653 3.367 1.726 4.538 3.216 1.172 1.491 1.895 3.363 2.17 5.616l-6.352.803c-.213-1.749-.846-3.017-1.898-3.806-1.018-.793-2.384-1.082-4.098-.865-1.714.217-2.986.838-3.816 1.865-.83 1.027-1.14 2.398-.932 4.113l1.963 16.09c.21 1.714.842 2.983 1.898 3.806 1.052.789 2.434 1.075 4.148.858 1.714-.217 2.97-.836 3.766-1.859.826-1.06 1.135-2.448.926-4.163l6.351-.803c.267 2.186.014 4.164-.76 5.935s-1.979 3.221-3.616 4.349c-1.607 1.091-3.604 1.788-5.99 2.089zm30.227-3.821c-2.353.297-4.473.122-6.361-.527-1.858-.687-3.373-1.776-4.544-3.267-1.142-1.529-1.849-3.403-2.119-5.622l-1.957-16.039c-.275-2.253-.04-4.246.704-5.979.777-1.737 1.987-3.154 3.628-4.249 1.67-1.133 3.682-1.848 6.034-2.145 2.386-.302 4.492-.107 6.316.584 1.855.653 3.367 1.725 4.539 3.216 1.171 1.491 1.895 3.363 2.169 5.616l-6.351.803c-.214-1.749-.846-3.018-1.898-3.807-1.018-.793-2.384-1.081-4.098-.864-1.714.216-2.986.838-3.816 1.865-.831 1.027-1.141 2.398-.932 4.113l1.963 16.089c.209 1.715.842 2.984 1.897 3.807 1.052.788 2.435 1.075 4.149.858 1.714-.217 2.969-.836 3.766-1.859.826-1.06 1.135-2.448.925-4.163l6.352-.803c.267 2.186.013 4.164-.76 5.935-.774 1.771-1.979 3.22-3.616 4.349-1.607 1.091-3.604 1.787-5.99 2.089zm19.075-2.923-.677-5.549 9.578-1.211-3.132-25.672-8.755 8.379-.812-6.658 7.725-7.174 7.46-.943 3.815 31.272 7.713-.975.677 5.548-23.592 2.983zm45.652-5.772-.892-7.313-16.384 2.071-1.113-9.129 11.679-22.168 7.058-.892-12.485 23.959.234 1.917 10.334-1.306-1.015-8.323 6.301-.796 2.584 21.184-6.301.796zm15.003-1.896-4.492-36.82 22.08-2.791.671 5.497-15.88 2.008 1.169 9.583 14.115-1.784.665 5.447-14.115 1.784 1.317 10.794 15.879-2.007.671 5.497-22.08 2.792z" fill="#001C06"/>
    </g>
    <defs>
        <clipPath id="gbz6s5e5xa">
            <path fill="#fff" transform="translate(.638 .172)" d="M0 0h235.704v279.648H0z"/>
        </clipPath>
    </defs>
</svg>
