<svg width="236" height="280" viewBox="0 0 236 280" fill="none" xmlns="http://www.w3.org/2000/svg">
    <g clip-path="url(#t7uz214lia)">
        <path fill="#001C06" d="M.091.172h235.704V279.82H.091z"/>
        <path d="M116.904 207.909c-10.237 0-66.9-1.999-74.417-5.995-7.518-3.997-13.356-9.752-17.515-17.265-4.158-7.514-6.238-16.386-6.238-26.617v-36.448c0-10.391 2.08-19.264 6.238-26.617 4.159-7.514 9.997-13.269 17.515-17.265 7.517-3.997 64.18-5.995 74.417-5.995 10.237 0 68.978 1.998 76.495 5.995 7.518 3.996 13.356 9.751 17.515 17.265 4.158 7.353 6.238 16.146 6.238 26.377v36.688c0 10.231-2.08 19.103-6.238 26.617-4.159 7.513-9.997 13.268-17.515 17.265-7.517 3.996-66.258 5.995-76.495 5.995zm0-17.026c9.917 0 67.458-2.797 72.897-8.392 5.438-5.596 8.157-13.748 8.157-24.459v-36.448c0-10.711-2.799-18.864-8.397-24.46-5.439-5.594-62.9-8.392-72.657-8.392-9.757 0-65.22 2.798-70.819 8.393-5.438 5.595-8.157 13.748-8.157 24.459v36.448c0 10.711 2.72 18.863 8.157 24.459 5.599 5.595 61.062 8.392 70.819 8.392z" fill="#00FE53"/>
        <path fill="#00FE53" d="M62.45 103.656h8.408v73.986H62.45zM84.31 103.656h15.133v73.986H84.31zM112.895 103.656h8.408v73.986h-8.408zM163.34 103.656h8.408v73.986h-8.408zM134.756 103.656h15.133v73.986h-15.133z"/>
    </g>
    <defs>
        <clipPath id="t7uz214lia">
            <path fill="#fff" transform="translate(.091 .172)" d="M0 0h235.704v279.648H0z"/>
        </clipPath>
    </defs>
</svg>
