<?xml version="1.0" standalone="no"?>
<!DOCTYPE svg PUBLIC "-//W3C//DTD SVG 20010904//EN"
 "http://www.w3.org/TR/2001/REC-SVG-20010904/DTD/svg10.dtd">
<svg version="1.0" xmlns="http://www.w3.org/2000/svg"
 width="635.000000pt" height="364.000000pt" viewBox="0 0 635.000000 364.000000"
 preserveAspectRatio="xMidYMid meet">

<g transform="translate(0.000000,364.000000) scale(0.100000,-0.100000)"
fill="#000000" stroke="none">
<path d="M3285 3490 l-270 -99 -405 0 c-350 -1 -409 -3 -428 -17 -21 -14 -22
-22 -22 -153 l0 -138 -162 -58 c-161 -57 -198 -76 -198 -101 0 -16 139 -434
225 -679 18 -49 40 -112 48 -140 9 -27 30 -88 46 -135 16 -47 25 -87 20 -91
-5 -3 -2 -39 7 -80 10 -46 14 -110 12 -169 -1 -52 -2 -359 0 -681 l2 -586 25
-11 c14 -7 59 -12 99 -12 71 0 74 -1 80 -26 4 -16 19 -30 41 -40 45 -18 43
-19 53 18 8 31 11 33 47 30 21 -2 60 -12 87 -24 40 -17 48 -25 54 -54 7 -36
55 -81 74 -69 6 3 22 -3 37 -14 14 -12 38 -21 52 -20 14 0 49 -2 76 -6 35 -4
88 1 180 19 121 23 131 24 143 8 19 -25 72 -16 104 19 15 16 31 29 35 29 4 0
44 6 89 14 76 12 82 12 93 -6 19 -31 98 -20 103 15 3 19 17 23 168 44 103 14
181 30 208 43 30 14 63 20 112 20 59 0 73 3 93 22 l22 23 -37 3 -38 3 0 705 0
704 35 0 35 0 0 152 0 151 -192 -6 c-437 -15 -918 -67 -1082 -118 -73 -22
-112 -60 -160 -157 -62 -124 -68 -170 -73 -597 -7 -552 7 -675 97 -813 l40
-62 -64 0 c-34 0 -124 -3 -199 -7 l-136 -6 -21 47 c-11 26 -30 82 -42 124 -21
74 -22 100 -25 582 -5 548 -1 605 46 746 44 132 104 227 206 329 91 92 169
142 250 164 138 36 689 77 1275 94 l75 2 0 468 c0 452 -1 469 -19 483 -16 11
-69 14 -267 14 l-247 0 -17 48 c-54 149 -56 152 -94 151 -14 -1 -147 -45 -296
-99z m-821 -326 c27 -10 18 -21 -14 -16 -27 4 -30 2 -30 -22 0 -31 24 -44 47
-25 14 12 16 12 11 -1 -7 -24 -55 -25 -67 -1 -11 21 -5 51 13 63 13 9 20 10
40 2z m91 -34 c11 -18 -6 -50 -26 -50 -22 0 -34 22 -25 45 6 17 42 20 51 5z
m114 -22 c-1 -28 -2 -30 -7 -10 -4 13 -11 23 -17 23 -5 0 -13 -10 -16 -23 l-6
-23 -4 23 c-5 30 -22 30 -31 0 -5 -20 -6 -18 -7 10 -1 31 0 32 44 32 44 0 45
-1 44 -32z m79 15 c2 -8 -5 -13 -17 -13 -12 0 -21 -5 -21 -11 0 -6 9 -8 21 -4
15 5 19 4 15 -4 -10 -16 -46 -13 -52 4 -10 25 4 47 28 43 12 -2 23 -9 26 -15z
m141 -15 c-1 -30 -2 -30 -8 -9 -10 36 -31 38 -32 4 -1 -27 -1 -27 -8 -4 -9 35
-29 37 -34 4 -4 -27 -4 -27 -6 5 -1 32 0 32 44 32 44 0 45 -1 44 -32z m73 2
c4 -27 2 -30 -24 -30 -18 0 -28 5 -28 15 0 8 5 15 11 15 5 0 7 -5 3 -11 -4 -7
-1 -10 6 -7 7 2 14 12 16 22 2 13 -2 17 -17 13 -10 -3 -17 -1 -13 4 3 5 13 9
23 9 13 0 20 -9 23 -30z m54 21 c-18 -7 -18 -8 -3 -14 23 -9 21 -37 -2 -37
-11 0 -22 4 -25 9 -4 5 4 7 16 4 l23 -5 -23 19 c-25 21 -20 33 12 32 20 0 20
-1 2 -8z m59 0 c-19 -8 -19 -8 3 -15 13 -4 21 -13 19 -19 -5 -15 -47 -22 -47
-8 0 6 8 8 18 5 16 -5 16 -5 0 9 -25 20 -22 37 5 36 21 0 21 -1 2 -8z m52 -38
c-3 -10 -5 -2 -5 17 0 19 2 27 5 18 2 -10 2 -26 0 -35z m121 15 c2 -16 -1 -28
-7 -28 -6 0 -11 11 -11 25 0 14 -4 25 -10 25 -5 0 -10 -11 -10 -25 0 -14 -4
-25 -10 -25 -5 0 -10 11 -10 25 0 14 -4 25 -10 25 -5 0 -10 -11 -10 -25 0 -14
-4 -25 -10 -25 -5 0 -10 14 -10 31 0 30 1 30 48 27 43 -3 47 -5 50 -30z m29
-15 c-3 -10 -5 -2 -5 17 0 19 2 27 5 18 2 -10 2 -26 0 -35z m73 38 c0 -5 -7
-15 -16 -22 -14 -12 -14 -14 3 -20 14 -6 13 -8 -9 -8 -31 -1 -36 10 -12 30 14
12 14 14 -3 20 -14 6 -13 8 10 8 15 1 27 -3 27 -8z m60 1 c0 -4 -6 -14 -12
-20 -10 -10 -10 -15 2 -22 12 -8 10 -10 -7 -10 -25 0 -28 7 -13 30 6 9 5 17
-3 22 -8 5 -4 8 11 8 12 0 22 -4 22 -8z m70 -6 c0 -8 3 -21 6 -30 5 -13 -1
-16 -25 -16 -21 0 -31 5 -31 15 0 8 5 15 11 15 5 0 7 -4 4 -10 -3 -5 1 -10 9
-10 9 0 14 8 13 21 -1 14 -7 19 -19 16 -10 -3 -16 -1 -12 4 9 14 44 10 44 -5z
m52 2 c-5 -7 -12 -22 -15 -33 -3 -13 -5 -9 -6 13 -1 23 3 32 15 32 12 0 14 -3
6 -12z m76 -5 c2 -8 -5 -13 -17 -13 -12 0 -21 -5 -21 -11 0 -6 9 -8 21 -4 15
5 19 4 15 -4 -19 -31 -63 0 -49 35 6 17 44 15 51 -3z m59 -30 c-3 -10 -5 -2
-5 17 0 19 2 27 5 18 2 -10 2 -26 0 -35z m-1227 -103 c24 0 33 -15 25 -40 -4
-13 -15 -20 -31 -20 -22 0 -24 4 -23 48 1 26 3 39 6 30 2 -10 13 -18 23 -18z
m313 23 c-28 -5 -30 -23 -3 -23 16 0 20 -6 19 -32 -2 -31 -2 -31 -6 -5 -5 34
-33 36 -33 2 0 -35 -17 -31 -22 4 -6 41 8 61 40 60 24 -2 24 -2 5 -6z m237
-38 c0 -43 -1 -45 -30 -45 -27 0 -30 3 -30 30 0 23 4 30 20 30 11 0 20 7 20
15 0 8 5 15 10 15 6 0 10 -20 10 -45z m103 -2 c3 -24 1 -43 -4 -43 -5 0 -9 21
-9 47 0 56 5 54 13 -4z m39 -5 c2 -21 0 -38 -4 -38 -4 0 -8 21 -7 48 1 52 6
48 11 -10z m230 0 c2 -21 0 -38 -4 -38 -4 0 -8 21 -7 48 1 52 6 48 11 -10z
m348 6 c0 -44 -1 -45 -27 -42 -22 2 -28 8 -28 28 0 18 6 26 23 28 12 2 22 10
22 18 0 8 2 14 5 14 3 0 5 -21 5 -46z m-424 21 c9 -8 11 -15 5 -15 -15 0 -14
-37 2 -44 6 -3 3 -5 -8 -3 -19 2 -36 40 -27 65 5 16 10 15 28 -3z m-748 -22
c2 -8 -5 -13 -17 -13 -12 0 -21 -5 -21 -11 0 -6 9 -8 21 -4 15 5 19 4 15 -4
-19 -31 -63 0 -49 35 6 17 44 15 51 -3z m76 1 c9 -24 7 -44 -4 -44 -5 0 -10
12 -10 26 0 32 -22 27 -31 -7 -6 -21 -7 -21 -8 9 -1 27 2 32 23 32 13 0 27 -7
30 -16z m74 -1 c2 -8 -5 -13 -17 -13 -12 0 -21 -5 -21 -11 0 -6 9 -8 21 -4 15
5 19 4 15 -4 -19 -31 -63 0 -49 35 6 17 44 15 51 -3z m152 8 c0 -5 -8 -8 -17
-7 -10 0 -18 -6 -18 -14 0 -8 8 -14 18 -14 9 1 17 -2 17 -7 0 -15 -40 -10 -46
6 -9 23 3 45 26 45 11 0 20 -4 20 -9z m40 -21 c0 -16 -4 -30 -10 -30 -5 0 -10
14 -10 30 0 17 5 30 10 30 6 0 10 -13 10 -30z m178 13 c2 -8 -5 -13 -17 -13
-12 0 -21 -5 -21 -11 0 -6 9 -9 20 -6 11 3 18 1 14 -4 -16 -26 -57 9 -47 39 6
16 45 12 51 -5z m142 -9 c0 -14 4 -23 10 -19 6 3 10 15 10 26 0 10 5 19 10 19
6 0 10 -14 10 -31 0 -27 -3 -30 -27 -27 -22 2 -29 9 -31 31 -2 15 1 27 7 27 6
0 11 -12 11 -26z m130 -4 c0 -16 -4 -30 -10 -30 -5 0 -10 14 -10 30 0 17 5 30
10 30 6 0 10 -13 10 -30z m67 -17 c-3 -10 -5 -2 -5 17 0 19 2 27 5 18 2 -10 2
-26 0 -35z m60 29 c-21 -23 -21 -29 1 -35 10 -3 6 -5 -10 -6 -30 -1 -35 8 -16
27 10 10 10 15 -2 22 -11 7 -8 10 14 10 28 0 28 -1 13 -18z m73 10 c0 -4 -6
-14 -12 -20 -10 -10 -10 -15 2 -22 11 -7 8 -10 -14 -10 -28 0 -28 1 -12 24 14
23 14 25 -2 29 -10 3 -6 5 11 6 15 0 27 -3 27 -7z m74 -7 c8 -23 -4 -45 -25
-45 -11 0 -22 7 -25 15 -9 23 3 45 25 45 10 0 21 -7 25 -15z m184 -2 c2 -8 -5
-13 -17 -13 -12 0 -21 -5 -21 -11 0 -6 9 -8 21 -4 15 5 19 4 15 -4 -10 -16
-46 -13 -52 4 -10 25 4 47 28 43 12 -2 23 -9 26 -15z m29 -30 c-3 -10 -5 -2
-5 17 0 19 2 27 5 18 2 -10 2 -26 0 -35z m-1207 -119 c0 -44 -1 -45 -27 -42
-22 2 -28 8 -28 28 0 18 6 26 23 28 12 2 22 10 22 18 0 8 2 14 5 14 3 0 5 -21
5 -46z m720 0 c0 -44 -1 -45 -27 -42 -22 2 -28 8 -28 28 0 18 6 26 23 28 12 2
22 10 22 18 0 8 2 14 5 14 3 0 5 -21 5 -46z m-874 5 c4 -8 -1 -9 -16 -4 -18 6
-21 3 -18 -12 2 -11 11 -17 22 -15 11 2 15 -1 11 -7 -9 -16 -42 -13 -49 4 -13
34 31 64 50 34z m78 -5 c7 -19 -10 -44 -31 -44 -17 0 -27 24 -19 45 7 20 42
19 50 -1z m116 -14 c0 -16 -4 -30 -10 -30 -5 0 -10 14 -10 30 0 17 5 30 10 30
6 0 10 -13 10 -30z m70 21 c0 -5 -8 -8 -17 -7 -10 0 -18 -6 -18 -14 0 -9 7
-14 19 -12 11 2 15 -1 11 -7 -17 -29 -54 1 -41 34 6 16 46 21 46 6z m32 -26
c-6 -34 -12 -32 -12 6 0 16 4 28 9 25 4 -3 6 -17 3 -31z m83 -6 c6 0 13 10 17
23 5 20 6 18 7 -9 1 -29 -2 -33 -24 -33 -22 0 -25 4 -24 33 1 27 2 29 7 9 4
-13 12 -23 17 -23z m103 9 c2 -16 -1 -28 -7 -28 -6 0 -11 12 -11 26 0 32 -22
27 -31 -7 -6 -21 -7 -20 -8 9 -1 31 1 33 27 30 21 -2 28 -9 30 -30z m29 -15
c-3 -10 -5 -2 -5 17 0 19 2 27 5 18 2 -10 2 -26 0 -35z m57 17 c3 0 6 7 6 15
0 8 4 15 9 15 6 0 6 -12 0 -30 -13 -37 -26 -38 -39 -4 -14 35 -12 42 4 22 7
-10 16 -18 20 -18z m91 0 c0 -18 -6 -26 -23 -28 -13 -2 -25 3 -28 12 -10 26 4
48 28 44 17 -2 23 -10 23 -28z m69 21 c4 -5 -3 -7 -15 -4 -17 5 -20 2 -17 -13
2 -12 11 -18 22 -16 11 2 15 -1 11 -7 -17 -29 -54 1 -41 34 6 17 32 20 40 6z
m33 -38 c-3 -10 -5 -2 -5 17 0 19 2 27 5 18 2 -10 2 -26 0 -35z m153 17 c0
-16 -4 -30 -10 -30 -5 0 -10 14 -10 30 0 17 5 30 10 30 6 0 10 -13 10 -30z
m-1227 -35 c-3 -9 -8 -14 -10 -11 -3 3 -2 9 2 15 9 16 15 13 8 -4z m527 -101
c0 -44 -1 -45 -27 -42 -22 2 -28 8 -28 28 0 18 6 26 23 28 12 2 22 10 22 18 0
8 2 14 5 14 3 0 5 -21 5 -46z m152 23 c9 8 16 7 26 -3 7 -8 8 -14 2 -14 -14 0
-13 -37 3 -43 7 -3 5 -6 -5 -6 -11 -1 -20 9 -24 24 -4 16 -13 25 -25 25 -22 0
-25 -20 -6 -39 10 -11 9 -13 -3 -9 -15 5 -29 45 -22 65 3 9 8 9 22 1 13 -9 22
-9 32 -1z m-357 -17 c11 -17 -5 -50 -25 -50 -10 0 -21 -8 -23 -17 -3 -10 -5 3
-6 30 -1 44 1 47 23 47 14 0 28 -5 31 -10z m47 -2 c-5 -7 -12 -22 -15 -33 -3
-13 -5 -9 -6 13 -1 23 3 32 15 32 12 0 14 -3 6 -12z m73 -18 c0 -33 -40 -41
-50 -11 -9 28 2 43 28 39 16 -2 22 -10 22 -28z m160 0 c0 -18 -6 -26 -23 -28
-13 -2 -25 3 -28 12 -10 26 4 48 28 44 17 -2 23 -10 23 -28z m180 0 c0 -18 -6
-26 -23 -28 -13 -2 -25 3 -28 12 -10 26 4 48 28 44 17 -2 23 -10 23 -28z m425
-1565 l0 -705 -75 0 -75 0 0 705 0 705 75 0 75 0 0 -705z m550 0 l0 -705 -140
0 -140 0 0 705 0 705 140 0 140 0 0 -705z"/>
<path d="M2515 3120 c-7 -12 2 -30 16 -30 5 0 9 9 9 20 0 21 -15 27 -25 10z"/>
<path d="M2425 2970 c-7 -12 2 -30 16 -30 5 0 9 9 9 20 0 21 -15 27 -25 10z"/>
<path d="M2942 2964 c4 -21 22 -23 26 -1 2 10 -3 17 -13 17 -10 0 -15 -6 -13
-16z"/>
<path d="M3670 2960 c0 -13 5 -20 13 -17 6 2 12 10 12 17 0 7 -6 15 -12 18 -8
2 -13 -5 -13 -18z"/>
<path d="M2508 2973 c7 -3 16 -2 19 1 4 3 -2 6 -13 5 -11 0 -14 -3 -6 -6z"/>
<path d="M2658 2973 c7 -3 16 -2 19 1 4 3 -2 6 -13 5 -11 0 -14 -3 -6 -6z"/>
<path d="M3028 2973 c7 -3 16 -2 19 1 4 3 -2 6 -13 5 -11 0 -14 -3 -6 -6z"/>
<path d="M3565 2970 c-8 -13 4 -32 16 -25 12 8 12 35 0 35 -6 0 -13 -4 -16
-10z"/>
<path d="M2570 2810 c0 -13 5 -20 13 -17 6 2 12 10 12 17 0 7 -6 15 -12 18 -8
2 -13 -5 -13 -18z"/>
<path d="M3290 2810 c0 -13 5 -20 13 -17 6 2 12 10 12 17 0 7 -6 15 -12 18 -8
2 -13 -5 -13 -18z"/>
<path d="M2492 2814 c4 -21 22 -23 26 -1 2 10 -3 17 -13 17 -10 0 -15 -6 -13
-16z"/>
<path d="M3074 2819 c-10 -17 13 -36 27 -22 12 12 4 33 -11 33 -5 0 -12 -5
-16 -11z"/>
<path d="M2624 2669 c-10 -17 13 -36 27 -22 12 12 4 33 -11 33 -5 0 -12 -5
-16 -11z"/>
<path d="M2425 2670 c-7 -12 2 -30 16 -30 5 0 9 9 9 20 0 21 -15 27 -25 10z"/>
<path d="M2550 2660 c0 -13 5 -20 13 -17 6 2 12 10 12 17 0 7 -6 15 -12 18 -8
2 -13 -5 -13 -18z"/>
<path d="M2704 2669 c-3 -6 -1 -16 5 -22 9 -9 14 -8 21 3 9 15 4 30 -10 30 -5
0 -12 -5 -16 -11z"/>
<path d="M2884 2669 c-10 -17 13 -36 27 -22 12 12 4 33 -11 33 -5 0 -12 -5
-16 -11z"/>
<path d="M4220 1331 l0 -379 45 -126 c25 -70 45 -131 45 -136 0 -4 -17 -12
-37 -17 -35 -8 -38 -12 -41 -46 l-3 -36 38 15 c36 16 88 66 88 86 0 6 45 27
100 48 66 25 99 42 97 51 -2 8 -57 169 -123 359 -67 190 -137 393 -157 452
-21 60 -40 108 -44 108 -5 0 -8 -170 -8 -379z"/>
<path d="M3810 244 c0 -11 5 -14 16 -10 9 3 29 6 45 6 16 0 29 5 29 10 0 6
-20 10 -45 10 -35 0 -45 -4 -45 -16z"/>
</g>
</svg>
