<svg width="145" height="73" viewBox="0 0 145 73" fill="none" xmlns="http://www.w3.org/2000/svg">
    <path d="M12.618 30.349c-1.861 0-3.497-.346-4.906-1.038-1.383-.717-2.46-1.715-3.23-2.99-.772-1.304-1.157-2.833-1.157-4.588V16.23c0-1.781.385-3.31 1.156-4.587.772-1.276 1.848-2.26 3.231-2.951 1.41-.718 3.045-1.077 4.906-1.077 2.765 0 4.972.718 6.621 2.154 1.649 1.409 2.513 3.337 2.593 5.783h-4.986c-.08-1.143-.492-2.02-1.237-2.632-.717-.639-1.715-.958-2.991-.958-1.33 0-2.38.373-3.15 1.117-.772.718-1.158 1.755-1.158 3.111v5.544c0 1.356.386 2.407 1.157 3.151.771.745 1.822 1.117 3.151 1.117 1.276 0 2.274-.306 2.991-.917.745-.639 1.157-1.53 1.237-2.673h4.986c-.08 2.447-.944 4.388-2.593 5.824-1.649 1.409-3.856 2.114-6.621 2.114zm23.796-.04c-1.861 0-3.483-.346-4.866-1.037-1.356-.718-2.42-1.715-3.19-2.992-.745-1.303-1.118-2.832-1.118-4.587V16.27c0-1.755.373-3.27 1.117-4.547a7.694 7.694 0 0 1 3.191-2.991c1.383-.718 3.005-1.077 4.866-1.077 1.888 0 3.51.359 4.866 1.077a7.44 7.44 0 0 1 3.151 2.991c.771 1.276 1.157 2.779 1.157 4.507v5.464c0 1.755-.386 3.284-1.157 4.587-.744 1.277-1.795 2.274-3.15 2.992-1.357.691-2.979 1.037-4.867 1.037zm0-4.348c1.33 0 2.353-.359 3.071-1.077.745-.744 1.117-1.808 1.117-3.19v-5.425c0-1.41-.372-2.473-1.117-3.19-.718-.719-1.741-1.078-3.07-1.078-1.304 0-2.328.36-3.072 1.077-.745.718-1.117 1.782-1.117 3.191v5.424c0 1.383.372 2.447 1.117 3.191.744.718 1.768 1.077 3.071 1.077zm22.041 4.388c-2.18 0-3.948-.758-5.305-2.274-1.33-1.516-1.994-3.55-1.994-6.102V16.03c0-2.58.665-4.627 1.994-6.143 1.33-1.515 3.098-2.273 5.305-2.273 1.808 0 3.244.518 4.308 1.555 1.064 1.01 1.595 2.407 1.595 4.188l-1.117-1.156h1.157l-.16-5.225V.833h4.986V29.95h-4.866v-4.188h-1.117l1.117-1.157c0 1.782-.532 3.19-1.595 4.228-1.064 1.01-2.5 1.516-4.308 1.516zm1.755-4.308c1.276 0 2.26-.372 2.952-1.117.718-.771 1.077-1.835 1.077-3.19v-5.505c0-1.356-.36-2.406-1.077-3.15-.692-.772-1.675-1.158-2.952-1.158-1.276 0-2.273.373-2.991 1.117-.718.745-1.077 1.808-1.077 3.191v5.504c0 1.383.359 2.447 1.077 3.191.718.745 1.715 1.117 2.991 1.117zm24.075 4.308c-1.86 0-3.483-.36-4.866-1.077-1.382-.718-2.46-1.715-3.23-2.992-.745-1.303-1.117-2.818-1.117-4.547V16.23c0-1.728.372-3.23 1.117-4.507.77-1.303 1.848-2.313 3.23-3.031 1.383-.718 3.005-1.077 4.866-1.077 1.835 0 3.43.359 4.787 1.077 1.382.718 2.446 1.728 3.19 3.031.772 1.276 1.157 2.779 1.157 4.507v3.949H79.898v1.555c0 1.543.372 2.712 1.117 3.51.744.771 1.848 1.157 3.31 1.157 1.117 0 2.021-.186 2.712-.558.692-.4 1.13-.971 1.317-1.716h4.906c-.373 1.888-1.383 3.404-3.032 4.547-1.622 1.117-3.603 1.676-5.943 1.676zm4.308-12.963v-1.197c0-1.515-.359-2.672-1.077-3.47-.718-.824-1.795-1.236-3.23-1.236-1.436 0-2.527.412-3.271 1.236-.745.825-1.117 1.994-1.117 3.51v.838l9.054-.08-.359.399zm19.568 12.923c-1.702 0-3.177-.333-4.427-.998a7.049 7.049 0 0 1-2.912-2.871c-.691-1.25-1.037-2.726-1.037-4.428V15.95c0-1.728.346-3.204 1.037-4.427a7.05 7.05 0 0 1 2.912-2.872c1.25-.665 2.725-.997 4.427-.997 1.702 0 3.178.332 4.428.997a7.047 7.047 0 0 1 2.911 2.872c.692 1.223 1.037 2.685 1.037 4.387v6.102c0 1.702-.345 3.178-1.037 4.428a7.047 7.047 0 0 1-2.911 2.871c-1.25.665-2.726.998-4.428.998zm0-2.832c1.649 0 2.925-.465 3.829-1.396.904-.93 1.356-2.287 1.356-4.069V15.95c0-1.782-.465-3.138-1.396-4.068-.904-.931-2.167-1.396-3.789-1.396-1.622 0-2.898.465-3.829 1.396-.904.93-1.356 2.286-1.356 4.068v6.063c0 1.781.452 3.137 1.356 4.068.931.93 2.207 1.396 3.829 1.396zm15.819 2.473V8.013h3.151v4.068h.798l-.878 1.157c0-1.755.532-3.125 1.596-4.109 1.09-1.01 2.566-1.515 4.427-1.515 2.181 0 3.922.691 5.225 2.074 1.303 1.356 1.955 3.204 1.955 5.544V29.95h-3.151V15.59c0-1.674-.439-2.964-1.317-3.868-.877-.904-2.074-1.356-3.589-1.356-1.569 0-2.806.479-3.71 1.436-.904.957-1.356 2.313-1.356 4.068v14.08h-3.151zM3.604 72.13V43.012H8.47V47.2h1.117L8.47 48.357c0-1.781.532-3.177 1.595-4.188 1.064-1.037 2.5-1.555 4.308-1.555 2.207 0 3.975.758 5.305 2.273 1.33 1.516 1.994 3.55 1.994 6.103v5.943c0 1.702-.306 3.19-.917 4.467-.585 1.25-1.423 2.22-2.513 2.911-1.09.692-2.38 1.038-3.869 1.038-1.808 0-3.244-.506-4.308-1.516-1.063-1.037-1.595-2.446-1.595-4.228l1.117 1.157H8.43l.16 5.225v6.142H3.604zm9.014-11.09c1.276 0 2.274-.371 2.991-1.116.718-.744 1.077-1.808 1.077-3.19v-5.505c0-1.383-.359-2.446-1.077-3.19-.717-.745-1.715-1.117-2.991-1.117-1.25 0-2.234.385-2.952 1.156-.717.745-1.076 1.795-1.076 3.151v5.504c0 1.356.359 2.42 1.076 3.191.718.745 1.702 1.117 2.952 1.117zm21.363 4.309c-2.26 0-4.042-.599-5.345-1.795-1.302-1.197-1.954-2.806-1.954-4.826 0-2.154.718-3.816 2.154-4.986s3.47-1.755 6.102-1.755h5.465v-1.875c0-1.063-.346-1.888-1.037-2.473-.692-.611-1.636-.917-2.832-.917-1.09 0-1.995.24-2.712.718-.718.479-1.144 1.13-1.277 1.954H27.68c.24-2.074 1.17-3.722 2.792-4.945 1.622-1.224 3.696-1.835 6.222-1.835 2.686 0 4.8.678 6.342 2.034 1.569 1.33 2.353 3.138 2.353 5.424V64.95h-4.826v-3.83h-.797l.797-1.076c0 1.622-.598 2.911-1.795 3.869-1.196.957-2.792 1.436-4.786 1.436zm1.635-3.75c1.41 0 2.553-.359 3.43-1.077.905-.718 1.357-1.648 1.357-2.792v-2.672h-5.385c-1.01 0-1.821.293-2.433.878-.611.585-.917 1.356-.917 2.313 0 1.037.345 1.861 1.037 2.473.718.585 1.688.877 2.911.877zm24.834 3.75c-1.862 0-3.497-.346-4.906-1.038-1.383-.717-2.46-1.715-3.231-2.99-.771-1.304-1.157-2.833-1.157-4.588V51.23c0-1.782.386-3.31 1.157-4.587.771-1.276 1.848-2.26 3.23-2.951 1.41-.718 3.045-1.077 4.907-1.077 2.765 0 4.972.718 6.62 2.154 1.65 1.409 2.513 3.337 2.593 5.783h-4.986c-.08-1.143-.492-2.02-1.236-2.632-.718-.639-1.715-.958-2.992-.958-1.329 0-2.38.373-3.15 1.117-.772.718-1.157 1.755-1.157 3.111v5.544c0 1.356.385 2.407 1.156 3.151.772.745 1.822 1.117 3.151 1.117 1.277 0 2.274-.306 2.992-.917.744-.639 1.157-1.53 1.236-2.673h4.986c-.08 2.447-.944 4.388-2.593 5.824-1.648 1.409-3.855 2.114-6.62 2.114zm15.02-.4V35.834h4.986v15.795h3.47l5.345-8.615h5.584l-6.62 10.61 6.74 11.327H89.27l-5.344-9.094h-3.47v9.094H75.47z" fill="#001C06"/>
    <path d="M120.173 66.576c-2.102 0-13.742-.411-15.286-1.232a8.703 8.703 0 0 1-3.597-3.546c-.855-1.544-1.282-3.366-1.282-5.468v-7.487c0-2.134.427-3.957 1.282-5.467a8.702 8.702 0 0 1 3.597-3.546c1.544-.821 13.184-1.232 15.286-1.232 2.103 0 14.169.41 15.713 1.232a8.699 8.699 0 0 1 3.598 3.546c.854 1.51 1.281 3.317 1.281 5.418v7.536c0 2.102-.427 3.924-1.281 5.468a8.7 8.7 0 0 1-3.598 3.546c-1.544.821-13.61 1.232-15.713 1.232zm0-3.498c2.037 0 13.857-.574 14.974-1.724 1.117-1.149 1.676-2.824 1.676-5.024v-7.487c0-2.2-.575-3.874-1.725-5.024-1.117-1.149-12.92-1.724-14.925-1.724-2.004 0-13.397.575-14.546 1.724-1.118 1.15-1.676 2.824-1.676 5.024v7.487c0 2.2.558 3.875 1.676 5.024 1.149 1.15 12.542 1.724 14.546 1.724z" fill="#00FE53"/>
    <path fill="#00FE53" d="M108.989 45.161h1.727v15.198h-1.727zM113.479 45.161h3.109v15.198h-3.109zM119.35 45.161h1.727v15.198h-1.727zM129.713 45.161h1.727v15.198h-1.727zM123.841 45.161h3.109v15.198h-3.109z"/>
</svg>
