<svg width="33" height="33" viewBox="0 0 33 33" fill="none" xmlns="http://www.w3.org/2000/svg">
    <path d="M21.648 3.6H10.902a7.929 7.929 0 0 0-7.92 7.92v10.747a7.929 7.929 0 0 0 7.921 7.92H21.65a7.929 7.929 0 0 0 7.92-7.922V11.52a7.928 7.928 0 0 0-7.922-7.92zm5.247 18.665a5.246 5.246 0 0 1-5.247 5.247H10.902a5.247 5.247 0 0 1-5.245-5.247V11.52a5.247 5.247 0 0 1 5.246-5.245H21.65a5.247 5.247 0 0 1 5.245 5.246v10.747-.002z" fill="#fff"/>
    <path d="M16.275 10.017a6.884 6.884 0 0 0-6.874 6.875 6.885 6.885 0 0 0 6.876 6.877 6.885 6.885 0 0 0 6.876-6.877 6.884 6.884 0 0 0-6.878-6.874zm0 11.078a4.201 4.201 0 1 1 0-8.403 4.201 4.201 0 0 1 0 8.403zM23.165 11.716a1.647 1.647 0 1 0 0-3.294 1.647 1.647 0 0 0 0 3.294z" fill="#fff"/>
</svg>
