<svg width="33" height="33" viewBox="0 0 33 33" fill="none" xmlns="http://www.w3.org/2000/svg">
    <path d="M30.164 19.205v9.827h-5.697v-9.169c0-2.304-.824-3.875-2.885-3.875-1.574 0-2.512 1.06-2.923 2.084-.15.366-.19.876-.19 1.389v9.57H12.77s.077-15.526 0-17.136h5.7v2.428l-.038.056h.038v-.056c.756-1.165 2.108-2.83 5.135-2.83 3.748 0 6.56 2.45 6.56 7.712zM6.81 3.635c-1.949 0-3.224 1.278-3.224 2.96 0 1.644 1.238 2.961 3.15 2.961h.036c1.989 0 3.223-1.317 3.223-2.961-.035-1.682-1.233-2.96-3.184-2.96H6.81zM3.924 29.031H9.62V11.895H3.924v17.137z" fill="#fff"/>
</svg>
